<svg xmlns="http://www.w3.org/2000/svg" width="20" height="20" viewBox="0 0 48 48"><g><path fill="#4285F4" d="M24 9.5c3.54 0 6.7 1.22 9.19 3.23l6.85-6.85C35.91 2.36 30.28 0 24 0 14.82 0 6.73 5.82 2.69 14.09l7.98 6.19C12.13 13.99 17.57 9.5 24 9.5z"/><path fill="#34A853" d="M46.1 24.55c0-1.64-.15-3.22-.42-4.74H24v9.01h12.42c-.54 2.9-2.18 5.36-4.66 7.01l7.19 5.59C43.98 37.13 46.1 31.3 46.1 24.55z"/><path fill="#FBBC05" d="M10.67 28.28A14.5 14.5 0 0 1 9.5 24c0-1.49.25-2.93.7-4.28l-7.98-6.19A23.94 23.94 0 0 0 0 24c0 3.91.94 7.61 2.61 10.89l8.06-6.61z"/><path fill="#EA4335" d="M24 48c6.28 0 11.56-2.08 15.41-5.67l-7.19-5.59c-2 1.36-4.56 2.16-8.22 2.16-6.43 0-11.87-4.49-13.33-10.54l-8.06 6.61C6.73 42.18 14.82 48 24 48z"/></g></svg>
